<?xml version="1.0" encoding="utf-8"?>
<svg width="108px" height="42px" viewBox="0 0 108 42" version="1.1" xmlns:xlink="http://www.w3.org/1999/xlink" xmlns="http://www.w3.org/2000/svg">
  <g id="Groupes-2">
    <path d="M7.999 0L37.001 0Q37.1974 0 37.3935 0.00963514Q37.5896 0.0192703 37.785 0.0385174Q37.9805 0.0577644 38.1747 0.0865771Q38.3689 0.11539 38.5615 0.153699Q38.7541 0.192007 38.9446 0.23972Q39.1351 0.287433 39.323 0.344434Q39.5109 0.401436 39.6958 0.467589Q39.8807 0.533742 40.0621 0.608888Q40.2435 0.684033 40.421 0.76799Q40.5985 0.851946 40.7717 0.944512Q40.9449 1.03708 41.1133 1.13803Q41.2817 1.23898 41.445 1.34807Q41.6083 1.45717 41.766 1.57414Q41.9237 1.69112 42.0755 1.81569Q42.2273 1.94026 42.3728 2.07213Q42.5183 2.204 42.6571 2.34285Q42.796 2.4817 42.9279 2.6272Q43.0597 2.7727 43.1843 2.92449Q43.3089 3.07628 43.4258 3.234Q43.5428 3.39172 43.6519 3.55499Q43.761 3.71826 43.862 3.88669Q43.9629 4.05512 44.0555 4.2283Q44.148 4.40148 44.232 4.57899Q44.316 4.7565 44.3911 4.93791Q44.4663 5.11933 44.5324 5.30422Q44.5986 5.4891 44.6556 5.67701Q44.7126 5.86492 44.7603 6.0554Q44.808 6.24588 44.8463 6.43847Q44.8846 6.63106 44.9134 6.8253Q44.9422 7.01954 44.9615 7.21496Q44.9807 7.41038 44.9904 7.60651Q45 7.80264 45 7.999L45 34.001Q45 34.1974 44.9904 34.3935Q44.9807 34.5896 44.9615 34.785Q44.9422 34.9805 44.9134 35.1747Q44.8846 35.3689 44.8463 35.5615Q44.808 35.7541 44.7603 35.9446Q44.7126 36.1351 44.6556 36.323Q44.5986 36.5109 44.5324 36.6958Q44.4663 36.8807 44.3911 37.0621Q44.316 37.2435 44.232 37.421Q44.148 37.5985 44.0555 37.7717Q43.9629 37.9449 43.862 38.1133Q43.761 38.2817 43.6519 38.445Q43.5428 38.6083 43.4258 38.766Q43.3089 38.9237 43.1843 39.0755Q43.0597 39.2273 42.9279 39.3728Q42.796 39.5183 42.6571 39.6571Q42.5183 39.796 42.3728 39.9279Q42.2273 40.0597 42.0755 40.1843Q41.9237 40.3089 41.766 40.4258Q41.6083 40.5428 41.445 40.6519Q41.2817 40.761 41.1133 40.862Q40.9449 40.9629 40.7717 41.0555Q40.5985 41.1481 40.421 41.232Q40.2435 41.316 40.0621 41.3911Q39.8807 41.4663 39.6958 41.5324Q39.5109 41.5986 39.323 41.6556Q39.1351 41.7126 38.9446 41.7603Q38.7541 41.808 38.5615 41.8463Q38.3689 41.8846 38.1747 41.9134Q37.9805 41.9422 37.785 41.9615Q37.5896 41.9807 37.3935 41.9904Q37.1974 42 37.001 42L7.999 42Q7.80264 42 7.60651 41.9904Q7.41038 41.9807 7.21496 41.9615Q7.01954 41.9422 6.8253 41.9134Q6.63106 41.8846 6.43847 41.8463Q6.24588 41.808 6.0554 41.7603Q5.86492 41.7126 5.67701 41.6556Q5.4891 41.5986 5.30422 41.5324Q5.11933 41.4663 4.93791 41.3911Q4.7565 41.316 4.57899 41.232Q4.40148 41.148 4.2283 41.0555Q4.05512 40.9629 3.88669 40.862Q3.71826 40.761 3.55499 40.6519Q3.39172 40.5428 3.234 40.4258Q3.07628 40.3089 2.92449 40.1843Q2.7727 40.0597 2.6272 39.9279Q2.4817 39.796 2.34285 39.6571Q2.204 39.5183 2.07213 39.3728Q1.94026 39.2273 1.81569 39.0755Q1.69112 38.9237 1.57414 38.766Q1.45717 38.6083 1.34807 38.445Q1.23898 38.2817 1.13803 38.1133Q1.03708 37.9449 0.944512 37.7717Q0.851946 37.5985 0.76799 37.421Q0.684033 37.2435 0.608888 37.0621Q0.533742 36.8807 0.467589 36.6958Q0.401436 36.5109 0.344434 36.323Q0.287433 36.1351 0.23972 35.9446Q0.192007 35.7541 0.153699 35.5615Q0.11539 35.3689 0.0865771 35.1747Q0.0577644 34.9805 0.0385174 34.785Q0.0192703 34.5896 0.00963514 34.3935Q0 34.1974 0 34.001L0 7.999Q0 7.80264 0.00963514 7.60651Q0.0192703 7.41038 0.0385174 7.21496Q0.0577644 7.01954 0.0865771 6.8253Q0.11539 6.63106 0.153699 6.43847Q0.192007 6.24588 0.23972 6.0554Q0.287433 5.86492 0.344434 5.67701Q0.401436 5.4891 0.467589 5.30422Q0.533742 5.11933 0.608888 4.93791Q0.684033 4.7565 0.76799 4.57899Q0.851946 4.40148 0.944512 4.2283Q1.03708 4.05512 1.13803 3.88669Q1.23898 3.71826 1.34807 3.55499Q1.45717 3.39172 1.57414 3.234Q1.69112 3.07628 1.81569 2.92449Q1.94026 2.7727 2.07213 2.6272Q2.204 2.4817 2.34285 2.34285Q2.4817 2.204 2.6272 2.07213Q2.7727 1.94026 2.92449 1.81569Q3.07628 1.69112 3.234 1.57414Q3.39172 1.45717 3.55499 1.34807Q3.71826 1.23898 3.88669 1.13803Q4.05512 1.03708 4.2283 0.944512Q4.40148 0.851946 4.57899 0.76799Q4.7565 0.684033 4.93791 0.608888Q5.11933 0.533742 5.30422 0.467589Q5.4891 0.401436 5.67701 0.344434Q5.86492 0.287433 6.0554 0.23972Q6.24588 0.192007 6.43847 0.153699Q6.63106 0.11539 6.8253 0.0865771Q7.01954 0.0577644 7.21496 0.0385174Q7.41038 0.0192703 7.60651 0.00963514Q7.80264 0 7.999 0L7.999 0Z" id="Rectangle-3" fill="#9562FF" fill-rule="evenodd" stroke="none" />
    <g id="Quizzeo" transform="translate(7 10)">
      <path d="M39.772 4.468Q40.36 5.032 41.248 5.032Q42.136 5.032 42.724 4.468Q43.312 3.904 43.312 3.064Q43.312 2.224 42.724 1.66Q42.136 1.096 41.248 1.096Q40.36 1.096 39.772 1.66Q39.184 2.224 39.184 3.064Q39.184 3.904 39.772 4.468ZM17.272 22.864L14.728 19.816Q13.672 20.08 12.568 20.08Q10.216 20.08 8.248 18.976Q6.28 17.872 5.128 15.916Q3.976 13.96 3.976 11.488Q3.976 9.04 5.128 7.084Q6.28 5.128 8.248 4.024Q10.216 2.92 12.568 2.92Q14.944 2.92 16.9 4.024Q18.856 5.128 19.996 7.084Q21.136 9.04 21.136 11.488Q21.136 13.72 20.188 15.556Q19.24 17.392 17.608 18.544L21.448 22.864L17.272 22.864ZM7.432 11.488Q7.432 13.168 8.08 14.44Q8.728 15.712 9.892 16.396Q11.056 17.08 12.568 17.08Q14.08 17.08 15.232 16.396Q16.384 15.712 17.032 14.44Q17.68 13.168 17.68 11.488Q17.68 9.808 17.032 8.548Q16.384 7.288 15.232 6.616Q14.08 5.944 12.568 5.944Q11.056 5.944 9.892 6.616Q8.728 7.288 8.08 8.548Q7.432 9.808 7.432 11.488ZM81.76 12.976Q81.76 13.696 81.664 14.272L71.944 14.272Q72.064 15.712 72.952 16.528Q73.84 17.344 75.136 17.344Q77.008 17.344 77.8 15.736L81.424 15.736Q80.848 17.656 79.216 18.892Q77.584 20.128 75.208 20.128Q73.288 20.128 71.764 19.276Q70.24 18.424 69.388 16.864Q68.536 15.304 68.536 13.264Q68.536 11.2 69.376 9.64Q70.216 8.08 71.728 7.24Q73.24 6.4 75.208 6.4Q77.104 6.4 78.604 7.216Q80.104 8.032 80.932 9.532Q81.76 11.032 81.76 12.976ZM86.656 19.276Q88.192 20.128 90.112 20.128Q92.056 20.128 93.628 19.276Q95.2 18.424 96.124 16.864Q97.048 15.304 97.048 13.264Q97.048 11.224 96.148 9.664Q95.248 8.104 93.688 7.252Q92.128 6.4 90.208 6.4Q88.288 6.4 86.728 7.252Q85.168 8.104 84.268 9.664Q83.368 11.224 83.368 13.264Q83.368 15.304 84.244 16.864Q85.12 18.424 86.656 19.276ZM36.232 6.616L36.232 19.912L32.848 19.912L32.848 18.232Q32.2 19.096 31.156 19.588Q30.112 20.08 28.888 20.08Q27.328 20.08 26.128 19.42Q24.928 18.76 24.244 17.476Q23.56 16.192 23.56 14.416L23.56 6.616L26.92 6.616L26.92 13.936Q26.92 15.52 27.712 16.372Q28.504 17.224 29.872 17.224Q31.264 17.224 32.056 16.372Q32.848 15.52 32.848 13.936L32.848 6.616L36.232 6.616ZM42.904 19.912L42.904 6.616L39.544 6.616L39.544 19.912L42.904 19.912ZM49.288 17.152L55.216 17.152L55.216 19.912L45.472 19.912L45.472 17.2L51.28 9.376L45.496 9.376L45.496 6.616L55.144 6.616L55.144 9.328L49.288 17.152ZM66.808 17.152L60.88 17.152L66.736 9.328L66.736 6.616L57.088 6.616L57.088 9.376L62.872 9.376L57.064 17.2L57.064 19.912L66.808 19.912L66.808 17.152ZM78.28 12.016Q78.256 10.72 77.344 9.94Q76.432 9.16 75.112 9.16Q73.864 9.16 73.012 9.916Q72.16 10.672 71.968 12.016L78.28 12.016ZM91.828 16.756Q91.024 17.2 90.112 17.2Q88.672 17.2 87.724 16.18Q86.776 15.16 86.776 13.264Q86.776 11.368 87.748 10.348Q88.72 9.328 90.16 9.328Q91.6 9.328 92.596 10.348Q93.592 11.368 93.592 13.264Q93.592 14.536 93.112 15.424Q92.632 16.312 91.828 16.756Z" />
    </g>
  </g>
</svg>