<?xml version="1.0" encoding="utf-8"?>
<svg width="512px" height="512px" viewBox="0 0 512 512" version="1.1" xmlns:xlink="http://www.w3.org/1999/xlink" xmlns="http://www.w3.org/2000/svg">
  <g id="Groupes">
    <path d="M256.68 383.966C215.19 383.966 175.18 371.686 137.76 347.466C103.69 325.466 73.02 293.956 49.06 256.466L49.06 256.386C69 227.816 90.84 203.656 114.3 184.176C114.729 183.817 114.988 183.295 115.015 182.737C115.042 182.178 114.833 181.634 114.44 181.236L94.52 161.346C93.7859 160.606 92.6065 160.554 91.81 161.226C66.89 182.226 43.76 207.986 22.7299 238.146C15.33 248.767 15.0772 262.805 22.09 273.686C48.5 315.016 82.49 349.826 120.37 374.336C163.02 401.966 208.92 415.966 256.68 415.966C282.459 415.886 308.056 411.638 332.48 403.386C333.135 403.164 333.629 402.619 333.785 401.945C333.942 401.271 333.74 400.565 333.25 400.076L311.67 378.496C310.659 377.51 309.204 377.13 307.84 377.496C291.127 381.8 273.938 383.973 256.68 383.966L256.68 383.966ZM491.84 238.6C465.38 197.68 431.05 162.92 392.57 138.07C350 110.55 303 96 256.66 96C231.154 96.0452 205.837 100.382 181.77 108.83C181.118 109.057 180.63 109.604 180.477 110.277C180.325 110.95 180.53 111.654 181.02 112.14L202.57 133.69C203.592 134.694 205.071 135.075 206.45 134.69C222.82 130.262 239.702 128.012 256.66 128C297.35 128 337.24 140.43 375.21 165C409.92 187.4 440.95 218.88 464.97 256C465.007 256.047 465.007 256.113 464.97 256.16C447.535 283.609 425.898 308.151 400.851 328.89C400.417 329.247 400.153 329.771 400.125 330.332C400.096 330.893 400.305 331.44 400.7 331.84L420.6 351.73C421.331 352.467 422.503 352.523 423.3 351.86C450.041 329.345 473.187 302.88 491.94 273.38C498.71 262.764 498.671 249.177 491.841 238.6L491.84 238.6Z" id="Forme" fill="#0F1322" fill-rule="evenodd" stroke="none" />
    <path d="M258 160C250.809 159.996 243.64 160.801 236.63 162.4C235.908 162.55 235.327 163.084 235.118 163.791C234.909 164.497 235.106 165.262 235.63 165.78L348.22 278.34C348.738 278.864 349.502 279.06 350.209 278.851C350.915 278.642 351.45 278.062 351.6 277.34C358.093 248.859 351.266 218.972 333.05 196.135C314.834 173.299 287.211 159.999 258 160L258 160ZM167.78 233.66C167.261 233.136 166.497 232.94 165.79 233.149C165.084 233.358 164.549 233.939 164.4 234.66C157.028 266.866 166.735 300.6 190.097 323.963C213.459 347.325 247.193 357.032 279.4 349.66C280.121 349.51 280.702 348.976 280.911 348.269C281.12 347.563 280.923 346.798 280.4 346.28L167.78 233.66Z" id="Forme" fill="#0F1322" fill-rule="evenodd" stroke="none" />
    <path d="M77.5572 53.3711L460.811 436.624Q461.097 436.911 461.369 437.211Q461.641 437.511 461.898 437.824Q462.155 438.137 462.396 438.462Q462.637 438.788 462.862 439.124Q463.088 439.461 463.296 439.809Q463.504 440.156 463.695 440.513Q463.886 440.87 464.059 441.236Q464.232 441.603 464.387 441.977Q464.542 442.351 464.679 442.732Q464.815 443.114 464.933 443.501Q465.05 443.889 465.149 444.282Q465.247 444.675 465.326 445.072Q465.405 445.469 465.465 445.87Q465.524 446.27 465.564 446.674Q465.603 447.077 465.623 447.481Q465.643 447.886 465.643 448.291Q465.643 448.696 465.623 449.1Q465.603 449.505 465.564 449.908Q465.524 450.311 465.465 450.712Q465.405 451.112 465.326 451.509Q465.247 451.907 465.149 452.3Q465.05 452.693 464.933 453.08Q464.815 453.468 464.679 453.849Q464.542 454.23 464.387 454.605Q464.232 454.979 464.059 455.345Q463.886 455.711 463.695 456.068Q463.504 456.425 463.296 456.773Q463.088 457.12 462.863 457.457Q462.638 457.794 462.396 458.119Q462.155 458.444 461.898 458.758Q461.641 459.071 461.369 459.371Q461.097 459.671 460.811 459.957L460.809 459.959Q460.523 460.245 460.223 460.517Q459.923 460.789 459.61 461.046Q459.297 461.303 458.971 461.544Q458.646 461.786 458.309 462.011Q457.972 462.236 457.625 462.444Q457.277 462.652 456.92 462.843Q456.563 463.034 456.197 463.207Q455.831 463.38 455.457 463.535Q455.082 463.69 454.701 463.827Q454.32 463.963 453.932 464.081Q453.544 464.198 453.152 464.297Q452.759 464.395 452.361 464.474Q451.964 464.553 451.564 464.613Q451.163 464.672 450.76 464.712Q450.357 464.751 449.952 464.771Q449.548 464.791 449.143 464.791Q448.738 464.791 448.333 464.771Q447.929 464.751 447.526 464.712Q447.122 464.672 446.722 464.613Q446.321 464.553 445.924 464.474Q445.527 464.395 445.134 464.297Q444.741 464.198 444.353 464.081Q443.966 463.963 443.584 463.827Q443.203 463.69 442.829 463.535Q442.455 463.38 442.088 463.207Q441.722 463.034 441.365 462.843Q441.008 462.652 440.66 462.444Q440.313 462.236 439.976 462.011Q439.64 461.786 439.314 461.544Q438.989 461.303 438.676 461.046Q438.363 460.789 438.063 460.517Q437.763 460.245 437.476 459.959L54.2227 76.7057Q53.9363 76.4193 53.6643 76.1192Q53.3923 75.8191 53.1353 75.506Q52.8784 75.1929 52.6371 74.8676Q52.3958 74.5422 52.1708 74.2055Q51.9458 73.8687 51.7376 73.5213Q51.5293 73.1739 51.3384 72.8167Q51.1475 72.4595 50.9743 72.0933Q50.8011 71.7272 50.6461 71.353Q50.4911 70.9788 50.3547 70.5975Q50.2182 70.2161 50.1007 69.8285Q49.9831 69.4409 49.8847 69.048Q49.7863 68.6551 49.7072 68.2579Q49.6282 67.8607 49.5688 67.46Q49.5094 67.0594 49.4697 66.6563Q49.43 66.2532 49.4101 65.8487Q49.3902 65.4441 49.3902 65.0391Q49.3902 64.6341 49.4101 64.2295Q49.43 63.825 49.4697 63.4219Q49.5094 63.0189 49.5688 62.6182Q49.6282 62.2176 49.7072 61.8203Q49.7863 61.4231 49.8847 61.0302Q49.9831 60.6373 50.1007 60.2497Q50.2182 59.8621 50.3547 59.4808Q50.4911 59.0994 50.6461 58.7252Q50.8011 58.351 50.9743 57.9849Q51.1475 57.6187 51.3384 57.2615Q51.5293 56.9043 51.7376 56.5569Q51.9458 56.2095 52.1708 55.8728Q52.3958 55.536 52.6371 55.2107Q52.8784 54.8854 53.1353 54.5723Q53.3923 54.2592 53.6643 53.9591Q53.9363 53.659 54.2227 53.3726L54.2241 53.3712Q54.5105 53.0848 54.8106 52.8128Q55.1107 52.5408 55.4238 52.2838Q55.7369 52.0269 56.0622 51.7856Q56.3875 51.5443 56.7243 51.3193Q57.061 51.0943 57.4084 50.886Q57.7558 50.6778 58.113 50.4869Q58.4702 50.296 58.8364 50.1228Q59.2025 49.9496 59.5767 49.7946Q59.9509 49.6396 60.3323 49.5032Q60.7136 49.3667 61.1012 49.2491Q61.4888 49.1316 61.8817 49.0331Q62.2746 48.9347 62.6718 48.8557Q63.0691 48.7767 63.4697 48.7173Q63.8704 48.6578 64.2735 48.6181Q64.6765 48.5784 65.0811 48.5586Q65.4856 48.5387 65.8906 48.5387Q66.2956 48.5387 66.7002 48.5586Q67.1047 48.5784 67.5078 48.6181Q67.9109 48.6578 68.3115 48.7173Q68.7122 48.7767 69.1094 48.8557Q69.5067 48.9347 69.8996 49.0331Q70.2924 49.1316 70.68 49.2491Q71.0676 49.3667 71.449 49.5032Q71.8303 49.6396 72.2045 49.7946Q72.5787 49.9496 72.9449 50.1228Q73.311 50.2959 73.6682 50.4869Q74.0254 50.6778 74.3728 50.886Q74.7202 51.0942 75.057 51.3193Q75.3937 51.5443 75.7191 51.7856Q76.0444 52.0268 76.3575 52.2838Q76.6706 52.5407 76.9707 52.8127Q77.2708 53.0847 77.5572 53.3711L77.5572 53.3711Z" id="Rectangle-3" fill="#F88863" fill-rule="evenodd" stroke="none" />
  </g>
</svg>