<?xml version="1.0" encoding="utf-8"?>
<svg width="14.083496px" height="14px" viewBox="0 0 14.083496 14" version="1.1" xmlns:xlink="http://www.w3.org/1999/xlink" xmlns="http://www.w3.org/2000/svg">
  <g id="svg" transform="translate(0.75 0.75)">
    <path d="M8.33333 8.34L8.33333 10.4167C8.33333 11.5673 7.40059 12.5 6.25 12.5L2.08333 12.5C0.93274 12.5 0 11.5673 0 10.4167L0 2.08333C0 0.93274 0.93274 0 2.08333 0L6.25 0C7.40059 0 8.33333 0.93274 8.33333 2.08333L8.33333 4.21917" id="Forme" fill="none" stroke="#C2C2C2" stroke-width="1.5" stroke-linecap="round" />
    <path d="M5.06917 6.875C4.77145 6.875 4.49635 6.75588 4.34749 6.5625C4.19862 6.36912 4.19862 6.13088 4.34749 5.9375C4.49635 5.74412 4.77145 5.625 5.06917 5.625L5.06917 6.875L5.06917 6.875ZM12.0776 5.625C12.3754 5.625 12.6505 5.74412 12.7993 5.9375C12.9482 6.13088 12.9482 6.36912 12.7993 6.5625C12.6505 6.75588 12.3754 6.875 12.0776 6.875L12.0776 5.625L12.0776 5.625ZM9.95167 4.61172C9.70595 4.36922 9.70329 3.97344 9.94573 3.72766C10.1882 3.48188 10.5839 3.47912 10.8298 3.7215L9.95167 4.61172L9.95167 4.61172ZM12.5 6.25018L13.0853 5.80518C13.244 5.92263 13.3333 6.08291 13.3333 6.25018C13.3333 6.41744 13.244 6.57773 13.0853 6.69518L12.5 6.25018L12.5 6.25018ZM10.83 8.77797C10.5843 9.02047 10.1885 9.01791 9.94595 8.77225C9.70338 8.52658 9.70585 8.13081 9.95145 7.88818L10.83 8.77797L10.83 8.77797ZM4.86084 5.625L12.0775 5.625L12.0775 6.875L4.86084 6.875L4.86084 5.625L4.86084 5.625ZM10.83 3.72168L12.9392 5.80501L12.0608 6.69501L9.95166 4.61168L10.83 3.72168L10.83 3.72168ZM12.9392 6.69518L10.83 8.77851L9.95166 7.88851L12.0608 5.80518L12.9392 6.69518L12.9392 6.69518Z" id="Forme" fill="#FEB57E" fill-rule="evenodd" stroke="none" />
  </g>
</svg>